<?xml version="1.0" standalone="no"?>
<!DOCTYPE svg PUBLIC "-//W3C//DTD SVG 20010904//EN"
 "http://www.w3.org/TR/2001/REC-SVG-20010904/DTD/svg10.dtd">
<svg version="1.0" xmlns="http://www.w3.org/2000/svg"
 width="400.000000pt" height="400.000000pt" viewBox="0 0 10000 512"
 preserveAspectRatio="meet">

<g transform="translate(0.000000,400.000000) scale(0.100000,-0.100000)"
fill="#000000" stroke="none">
<path d="M0 2000 l0 -2000 2000 0 2000 0 0 2000 0 2000 -2000 0 -2000 0 0
-2000z m2205 950 c209 -67 385 -240 465 -457 l33 -88 -2 -460 -2 -460 -36 -74
c-42 -88 -152 -206 -250 -269 -207 -133 -478 -159 -703 -69 -189 77 -400 300
-400 425 0 69 63 122 144 122 45 0 96 -43 126 -106 12 -24 41 -63 63 -85 101
-99 193 -140 332 -147 158 -7 278 39 375 145 71 78 83 104 88 203 l5 84 -24
-17 c-113 -82 -192 -112 -337 -128 -84 -10 -115 -9 -196 5 -263 44 -486 240
-568 499 -27 88 -34 251 -14 346 29 138 90 243 207 359 83 82 203 151 321 182
99 27 272 22 373 -10z"/>
<path d="M1870 2695 c-111 -32 -212 -122 -273 -245 -30 -61 -32 -70 -32 -180
0 -104 3 -120 27 -173 40 -85 79 -130 164 -186 96 -64 133 -74 269 -69 97 3
117 7 168 33 64 32 149 115 192 189 70 120 71 286 4 419 -32 61 -124 147 -201
185 -58 30 -77 34 -164 38 -70 3 -115 -1 -154 -11z"/>
</g>
</svg>
