<svg xmlns="http://www.w3.org/2000/svg" width="400" height="400" viewBox="0 0 400 400" version="1.1"><path d="M 184.500 103.609 C 175.874 105.772, 161.325 113.038, 155.456 118.115 C 143.819 128.183, 135.759 139.890, 131.783 152.500 C 128.515 162.864, 128.564 182.631, 131.882 192.500 C 136.370 205.848, 141.761 214.576, 150.650 222.883 C 164.043 235.399, 175.386 240.998, 191.378 242.985 C 200.180 244.079, 212.754 243.220, 221.184 240.951 C 226.344 239.561, 235.225 235.117, 240 231.534 L 243.500 228.908 243.794 235.961 C 244.167 244.900, 242.263 249.442, 234.735 257.572 C 225.459 267.592, 214.685 272, 199.471 272 C 190.268 272, 182.782 270.115, 175.500 265.962 C 168.809 262.147, 160.533 254.212, 158.721 249.874 C 153.696 237.849, 142.876 234.536, 134.483 242.451 C 131.590 245.180, 131 246.441, 131 249.897 C 131 261.617, 148.096 281.054, 166.681 290.463 C 184.200 299.332, 206.899 300.420, 225.983 293.305 C 241.747 287.428, 258.925 273.130, 266 259.997 L 269.500 253.500 270 210 C 270.275 186.075, 270.214 164.227, 269.863 161.450 C 269.513 158.672, 267.851 152.963, 266.169 148.764 C 257.749 127.735, 241.832 112.381, 221.096 105.282 C 211.563 102.019, 194.039 101.218, 184.500 103.609 M 188.273 129.910 C 177.082 132.781, 165.760 142.649, 159.824 154.706 C 156.642 161.170, 156.500 161.949, 156.500 172.979 C 156.500 183.887, 156.672 184.863, 159.728 191.315 C 165.821 204.180, 179.039 214.020, 192.859 215.980 C 207.823 218.102, 220.539 214.148, 230.260 204.349 C 244.690 189.804, 247.988 169.618, 238.858 151.722 C 235.682 145.496, 226.149 136.691, 218.518 132.934 C 212.544 129.993, 210.861 129.637, 201.690 129.375 C 196.086 129.214, 190.048 129.455, 188.273 129.910" stroke="none" fill="#f8f9f9" fill-rule="evenodd"/><path d="M -0 200.002 L -0 400.005 200.250 399.752 L 400.500 399.500 400.752 199.750 L 401.005 0 200.502 0 L 0 0 -0 200.002 M 0.490 200.500 C 0.490 310.500, 0.607 355.352, 0.750 300.170 C 0.893 244.989, 0.893 154.989, 0.750 100.170 C 0.607 45.352, 0.490 90.500, 0.490 200.500 M 184.500 103.609 C 175.874 105.772, 161.325 113.038, 155.456 118.115 C 143.819 128.183, 135.759 139.890, 131.783 152.500 C 128.515 162.864, 128.564 182.631, 131.882 192.500 C 136.370 205.848, 141.761 214.576, 150.650 222.883 C 164.043 235.399, 175.386 240.998, 191.378 242.985 C 200.180 244.079, 212.754 243.220, 221.184 240.951 C 226.344 239.561, 235.225 235.117, 240 231.534 L 243.500 228.908 243.794 235.961 C 244.167 244.900, 242.263 249.442, 234.735 257.572 C 225.459 267.592, 214.685 272, 199.471 272 C 190.268 272, 182.782 270.115, 175.500 265.962 C 168.809 262.147, 160.533 254.212, 158.721 249.874 C 153.696 237.849, 142.876 234.536, 134.483 242.451 C 131.590 245.180, 131 246.441, 131 249.897 C 131 261.617, 148.096 281.054, 166.681 290.463 C 184.200 299.332, 206.899 300.420, 225.983 293.305 C 241.747 287.428, 258.925 273.130, 266 259.997 L 269.500 253.500 270 210 C 270.275 186.075, 270.214 164.227, 269.863 161.450 C 269.513 158.672, 267.851 152.963, 266.169 148.764 C 257.749 127.735, 241.832 112.381, 221.096 105.282 C 211.563 102.019, 194.039 101.218, 184.500 103.609 M 188.273 129.910 C 177.082 132.781, 165.760 142.649, 159.824 154.706 C 156.642 161.170, 156.500 161.949, 156.500 172.979 C 156.500 183.887, 156.672 184.863, 159.728 191.315 C 165.821 204.180, 179.039 214.020, 192.859 215.980 C 207.823 218.102, 220.539 214.148, 230.260 204.349 C 244.690 189.804, 247.988 169.618, 238.858 151.722 C 235.682 145.496, 226.149 136.691, 218.518 132.934 C 212.544 129.993, 210.861 129.637, 201.690 129.375 C 196.086 129.214, 190.048 129.455, 188.273 129.910" stroke="none" fill="#11263a" fill-rule="evenodd"/></svg>